<?xml version="1.0" encoding="UTF-8" standalone="no"?>
<!-- Created with Inkscape (http://www.inkscape.org/) -->

<svg
   width="48"
   height="48"
   viewBox="0 0 12.7 12.7"
   version="1.1"
   id="svg5"
   xml:space="preserve"
   xmlns="http://www.w3.org/2000/svg"
   xmlns:svg="http://www.w3.org/2000/svg"><defs
     id="defs2" /><g
     id="layer1"><text
       xml:space="preserve"
       style="font-size:1.84363px;fill:#000000;stroke-width:0.275354"
       x="1.2016661"
       y="10.958854"
       id="text281"><tspan
         id="tspan279"
         style="font-style:italic;font-variant:normal;font-weight:normal;font-stretch:normal;font-size:1.84363px;font-family:'Helvetica Neue';-inkscape-font-specification:'Helvetica Neue Italic';stroke-width:0.275354"
         x="1.2016661"
         y="10.958854">*{footnotes}</tspan></text><g
       style="fill:none"
       id="g872"
       transform="matrix(0.08503696,0,0,0.08503696,0.90765109,0.37843422)"><path
         fill="#ffffff"
         d="m 13.9434,70.808 c 0,-3.2481 0.8892,-4.9389 2.58,-6.2293 l 51.9708,21.4466 c -2.6252,8.0091 -0.438,15.2347 2.1803,17.2637 L 17.592,79.0396 C 16.0865,77.8614 13.9434,74.9461 13.9434,70.808 Z"
         id="path846" /><path
         fill="#000000"
         fill-rule="evenodd"
         d="m 15.3101,62.9889 c 0.5657,-0.4318 1.3183,-0.5304 1.9762,-0.2589 l 51.9709,21.4466 c 0.9675,0.3993 1.4636,1.477 1.1376,2.4717 -1.2071,3.6824 -1.2972,7.1561 -0.8078,9.9004 0.5087,2.8523 1.5728,4.5863 2.3126,5.1603 0.8027,0.622 1.0118,1.746 0.4863,2.615 -0.5255,0.869 -1.6188,1.207 -2.5425,0.785 L 16.7609,80.8588 c -0.143,-0.0653 -0.2777,-0.1473 -0.4015,-0.2442 -1.928,-1.5088 -4.416,-4.9789 -4.416,-9.8065 0,-1.7959 0.2441,-3.3275 0.824,-4.6513 0.5931,-1.354 1.478,-2.3554 2.5427,-3.1679 z m 2.2819,16.0507 c -1.5055,-1.1782 -3.6486,-4.0935 -3.6486,-8.2315 0,-3.2482 0.8892,-4.939 2.58,-6.2293 l 51.9708,21.4465 c -1.8245,5.5665 -1.3244,10.7546 0.0293,14.0827 0.594,1.46 1.3525,2.563 2.151,3.181 z"
         clip-rule="evenodd"
         id="path848" /><path
         fill="#000000"
         d="M 114.057,44.1514 63.7861,24.7108 16.2648,64.7701 70.8554,87.7453 Z"
         id="path850" /><path
         fill="#000000"
         fill-rule="evenodd"
         d="m 62.497,23.1817 c 0.5585,-0.4708 1.3292,-0.5997 2.0105,-0.3362 L 114.778,42.286 c 0.629,0.2434 1.093,0.7877 1.234,1.4476 0.141,0.6598 -0.06,1.3463 -0.535,1.8256 L 72.276,89.1531 c -0.5747,0.5799 -1.444,0.7523 -2.1965,0.4356 L 15.4889,66.6135 c -0.6416,-0.27 -1.0967,-0.8542 -1.2014,-1.5425 -0.1047,-0.6882 0.1559,-1.3813 0.6882,-1.83 z M 63.7861,24.7108 114.057,44.1514 70.8554,87.7453 16.2647,64.7701 Z"
         clip-rule="evenodd"
         id="path852" /><path
         fill="#ffffff"
         d="M 85.3134,48.7163 63.3328,40.0842 59.1135,43.7045 80.9084,52.832 Z M 114.013,59.061 C 109.207,55.1454 110.097,48.8716 113.79,44.2441 L 68.8498,86.6924 c -2.7585,6.6297 -0.52,13.0397 1.8692,16.5746 z"
         id="path854" /><path
         fill="#000000"
         fill-rule="evenodd"
         d="m 115.144,42.7723 c 0.773,0.711 0.864,1.8986 0.209,2.7194 -1.638,2.0523 -2.573,4.3742 -2.64,6.4911 -0.064,2.0493 0.671,3.9861 2.563,5.5277 0.436,0.3551 0.702,0.8772 0.733,1.4384 0.032,0.5613 -0.174,1.1099 -0.568,1.5115 L 72.1479,104.666 c -0.4203,0.429 -1.0111,0.647 -1.6093,0.593 -0.5981,-0.055 -1.1403,-0.375 -1.4766,-0.872 -2.6265,-3.886 -5.1587,-11.0127 -2.0587,-18.463 0.1078,-0.2592 0.2691,-0.4928 0.4732,-0.6856 L 112.417,42.7902 c 0.763,-0.7211 1.954,-0.7289 2.727,-0.0179 z m -1.354,1.4718 -44.9402,42.4483 c -2.3431,5.6313 -1.0809,11.104 0.8165,14.7906 0.3365,0.654 0.6929,1.251 1.0527,1.784 l 43.294,-44.206 c -0.494,-0.402 -0.927,-0.8289 -1.304,-1.2762 -1.997,-2.3737 -2.392,-5.325 -1.653,-8.2068 0.478,-1.8656 1.432,-3.7021 2.734,-5.3339 z"
         clip-rule="evenodd"
         id="path856" /><path
         fill="#000000"
         fill-rule="evenodd"
         d="m 111.216,58.5439 c 0.384,0.3968 0.374,1.0299 -0.023,1.414 L 80.5805,89.5915 c -0.3968,0.3842 -1.0299,0.3739 -1.414,-0.0229 -0.3841,-0.3969 -0.3739,-1.0299 0.023,-1.4141 L 109.802,58.5209 c 0.397,-0.3841 1.03,-0.3739 1.414,0.023 z m -1.765,-2.4764 c 0.375,0.4048 0.352,1.0376 -0.053,1.4132 L 89.6421,75.8126 c -0.4048,0.3757 -1.0375,0.3521 -1.4132,-0.0528 -0.3757,-0.4048 -0.352,-1.0375 0.0528,-1.4132 L 108.037,56.0147 c 0.405,-0.3757 1.038,-0.3521 1.414,0.0528 z M 24.7621,76.368 c 0.2163,-0.5082 0.8036,-0.7448 1.3117,-0.5285 l 19.0518,8.1089 c 0.5081,0.2163 0.7448,0.8036 0.5285,1.3118 -0.2163,0.5082 -0.8036,0.7448 -1.3118,0.5285 L 25.2906,77.6797 C 24.7824,77.4635 24.5458,76.8762 24.7621,76.368 Z"
         clip-rule="evenodd"
         id="path858" /></g></g></svg>
